<svg width="112" height="26" viewBox="0 0 112 26" fill="none" xmlns="http://www.w3.org/2000/svg">
<path d="M33.7998 7.5V9.54688H35.3779V10.6641H33.7998V15.9062C33.7998 16.2448 33.8701 16.5 34.0107 16.6719C34.1514 16.8385 34.3909 16.9219 34.7295 16.9219C34.8961 16.9219 35.1253 16.8906 35.417 16.8281V18C35.0368 18.1042 34.667 18.1562 34.3076 18.1562C33.6618 18.1562 33.1748 17.9609 32.8467 17.5703C32.5185 17.1797 32.3545 16.625 32.3545 15.9062V10.6641H30.8154V9.54688H32.3545V7.5H33.7998ZM38.6435 18H37.1982V9.54688H38.6435V18ZM37.081 7.30469C37.081 7.07031 37.1514 6.8724 37.292 6.71094C37.4378 6.54948 37.6514 6.46875 37.9326 6.46875C38.2139 6.46875 38.4274 6.54948 38.5732 6.71094C38.7191 6.8724 38.792 7.07031 38.792 7.30469C38.792 7.53906 38.7191 7.73438 38.5732 7.89062C38.4274 8.04688 38.2139 8.125 37.9326 8.125C37.6514 8.125 37.4378 8.04688 37.292 7.89062C37.1514 7.73438 37.081 7.53906 37.081 7.30469ZM46.1826 18C46.0993 17.8333 46.0316 17.5365 45.9795 17.1094C45.3076 17.8073 44.5055 18.1562 43.5732 18.1562C42.7399 18.1562 42.055 17.9219 41.5185 17.4531C40.9873 16.9792 40.7217 16.3802 40.7217 15.6562C40.7217 14.776 41.055 14.0938 41.7217 13.6094C42.3935 13.1198 43.3362 12.875 44.5498 12.875H45.956V12.2109C45.956 11.7057 45.805 11.3047 45.5029 11.0078C45.2008 10.7057 44.7555 10.5547 44.167 10.5547C43.6514 10.5547 43.2191 10.6849 42.8701 10.9453C42.5211 11.2057 42.3467 11.5208 42.3467 11.8906H40.8935C40.8935 11.4688 41.042 11.0625 41.3389 10.6719C41.6409 10.276 42.0472 9.96354 42.5576 9.73438C43.0732 9.50521 43.6383 9.39062 44.2529 9.39062C45.2269 9.39062 45.9899 9.63542 46.542 10.125C47.0941 10.6094 47.3805 11.2786 47.4014 12.1328V16.0234C47.4014 16.7995 47.5003 17.4167 47.6982 17.875V18H46.1826ZM43.7842 16.8984C44.2373 16.8984 44.667 16.7812 45.0732 16.5469C45.4795 16.3125 45.7737 16.0078 45.956 15.6328V13.8984H44.8232C43.0524 13.8984 42.167 14.4167 42.167 15.4531C42.167 15.9062 42.318 16.2604 42.6201 16.5156C42.9222 16.7708 43.3102 16.8984 43.7842 16.8984ZM49.3232 13.7031C49.3232 12.3854 49.6279 11.3385 50.2373 10.5625C50.8467 9.78125 51.654 9.39062 52.6592 9.39062C53.6904 9.39062 54.4951 9.75521 55.0732 10.4844L55.1435 9.54688H56.4639V17.7969C56.4639 18.8906 56.1383 19.7526 55.4873 20.3828C54.8415 21.013 53.9717 21.3281 52.8779 21.3281C52.2685 21.3281 51.6722 21.1979 51.0889 20.9375C50.5055 20.6771 50.0602 20.3203 49.7529 19.8672L50.5029 19C51.1227 19.7656 51.8805 20.1484 52.7764 20.1484C53.4795 20.1484 54.0264 19.9505 54.417 19.5547C54.8128 19.1589 55.0107 18.6016 55.0107 17.8828V17.1562C54.4326 17.8229 53.6435 18.1562 52.6435 18.1562C51.654 18.1562 50.8519 17.7578 50.2373 16.9609C49.6279 16.1641 49.3232 15.0781 49.3232 13.7031ZM50.7764 13.8672C50.7764 14.8203 50.9717 15.5703 51.3623 16.1172C51.7529 16.6589 52.2998 16.9297 53.0029 16.9297C53.9144 16.9297 54.5836 16.5156 55.0107 15.6875V11.8281C54.568 11.0208 53.904 10.6172 53.0185 10.6172C52.3154 10.6172 51.7659 10.8906 51.3701 11.4375C50.9743 11.9844 50.7764 12.7943 50.7764 13.8672ZM58.2685 13.6953C58.2685 12.8672 58.43 12.1224 58.7529 11.4609C59.081 10.7995 59.5342 10.2891 60.1123 9.92969C60.6956 9.57031 61.3597 9.39062 62.1045 9.39062C63.2555 9.39062 64.1852 9.78906 64.8935 10.5859C65.6071 11.3828 65.9639 12.4427 65.9639 13.7656V13.8672C65.9639 14.6901 65.805 15.4297 65.4873 16.0859C65.1748 16.737 64.7243 17.2448 64.1357 17.6094C63.5524 17.974 62.8805 18.1562 62.1201 18.1562C60.9743 18.1562 60.0446 17.7578 59.331 16.9609C58.6227 16.1641 58.2685 15.1094 58.2685 13.7969V13.6953ZM59.7217 13.8672C59.7217 14.8047 59.9378 15.5573 60.3701 16.125C60.8076 16.6927 61.3909 16.9766 62.1201 16.9766C62.8545 16.9766 63.4378 16.6901 63.8701 16.1172C64.3024 15.5391 64.5185 14.7318 64.5185 13.6953C64.5185 12.7682 64.2972 12.0182 63.8545 11.4453C63.417 10.8672 62.8336 10.5781 62.1045 10.5781C61.3909 10.5781 60.8154 10.862 60.3779 11.4297C59.9404 11.9974 59.7217 12.8099 59.7217 13.8672ZM73.8701 19.1797H66.7139V18H73.8701V19.1797ZM76.5654 18H75.1201V6H76.5654V18ZM84.1045 17.1641C83.542 17.8255 82.7165 18.1562 81.6279 18.1562C80.7269 18.1562 80.0394 17.8958 79.5654 17.375C79.0967 16.849 78.8597 16.0729 78.8545 15.0469V9.54688H80.2998V15.0078C80.2998 16.2891 80.8206 16.9297 81.8623 16.9297C82.9665 16.9297 83.7008 16.5182 84.0654 15.6953V9.54688H85.5107V18H84.1357L84.1045 17.1641ZM91.1045 16.9766C91.6201 16.9766 92.0706 16.8203 92.456 16.5078C92.8415 16.1953 93.055 15.8047 93.0967 15.3359H94.4639C94.4378 15.8203 94.2711 16.2812 93.9639 16.7188C93.6566 17.1562 93.2451 17.5052 92.7295 17.7656C92.2191 18.026 91.6774 18.1562 91.1045 18.1562C89.9534 18.1562 89.0368 17.7734 88.3545 17.0078C87.6774 16.237 87.3389 15.1849 87.3389 13.8516V13.6094C87.3389 12.7865 87.4899 12.0547 87.792 11.4141C88.0941 10.7734 88.5264 10.276 89.0889 9.92188C89.6566 9.56771 90.3258 9.39062 91.0967 9.39062C92.0446 9.39062 92.831 9.67448 93.456 10.2422C94.0862 10.8099 94.4222 11.5469 94.4639 12.4531H93.0967C93.055 11.9062 92.8467 11.4583 92.4717 11.1094C92.1019 10.7552 91.6435 10.5781 91.0967 10.5781C90.3623 10.5781 89.792 10.8438 89.3857 11.375C88.9847 11.901 88.7842 12.6641 88.7842 13.6641V13.9375C88.7842 14.9115 88.9847 15.6615 89.3857 16.1875C89.7868 16.7135 90.3597 16.9766 91.1045 16.9766ZM97.5342 10.5703C98.1748 9.78385 99.0081 9.39062 100.034 9.39062C101.821 9.39062 102.722 10.3984 102.737 12.4141V18H101.292V12.4062C101.287 11.7969 101.146 11.3464 100.87 11.0547C100.599 10.763 100.175 10.6172 99.5967 10.6172C99.1279 10.6172 98.7165 10.7422 98.3623 10.9922C98.0081 11.2422 97.7321 11.5703 97.5342 11.9766V18H96.0889V6H97.5342V10.5703Z" fill="#C4C4CC"/>
<g clip-path="url(#clip0_61385:196)">
<path d="M8.78322 5.16653C3.93318 5.16653 0 8.76253 0 13.1985C0 16.7465 2.51671 19.7565 6.00847 20.8195C6.44769 20.8935 6.608 20.6455 6.608 20.4325C6.608 20.2415 6.60031 19.7365 6.59592 19.0665C4.15279 19.5515 3.63671 17.9895 3.63671 17.9895C3.23812 17.0615 2.66165 16.8145 2.66165 16.8145C1.86337 16.3165 2.72094 16.3265 2.72094 16.3265C3.60267 16.3835 4.06604 17.1545 4.06604 17.1545C4.85004 18.3815 6.12267 18.0275 6.62337 17.8215C6.70243 17.3025 6.92973 16.9485 7.18118 16.7475C5.23106 16.5445 3.17992 15.8555 3.17992 12.7785C3.17992 11.9015 3.52251 11.1845 4.08471 10.6225C3.99357 10.4195 3.69271 9.60253 4.17035 8.49753C4.17035 8.49753 4.90824 8.28153 6.58604 9.32053C7.28659 9.14253 8.03765 9.05353 8.78541 9.05053C9.53098 9.05453 10.2831 9.14253 10.9848 9.32153C12.6615 8.28253 13.3983 8.49853 13.3983 8.49853C13.877 9.60453 13.5762 10.4205 13.4861 10.6235C14.0494 11.1855 14.3887 11.9025 14.3887 12.7795C14.3887 15.8645 12.3354 16.5435 10.3787 16.7425C10.6938 16.9905 10.9749 17.4805 10.9749 18.2295C10.9749 19.3035 10.9639 20.1695 10.9639 20.4325C10.9639 20.6475 11.122 20.8975 11.5678 20.8185C15.0541 19.7545 17.5686 16.7455 17.5686 13.1985C17.5686 8.76253 13.6355 5.16653 8.78322 5.16653Z" fill="#C4C4CC"/>
</g>
<defs>
<clipPath id="clip0_61385:196">
<rect width="17.5686" height="16" fill="white" transform="translate(0 5)"/>
</clipPath>
</defs>
</svg>
