<svg width="18" height="16" viewBox="0 0 18 16" fill="none" xmlns="http://www.w3.org/2000/svg">
<g clip-path="url(#clip0_61385:198)">
<path d="M8.78322 0.166527C3.93318 0.166527 0 3.76253 0 8.19853C0 11.7465 2.51671 14.7565 6.00847 15.8195C6.44769 15.8935 6.608 15.6455 6.608 15.4325C6.608 15.2415 6.60031 14.7365 6.59592 14.0665C4.15279 14.5515 3.63671 12.9895 3.63671 12.9895C3.23812 12.0615 2.66165 11.8145 2.66165 11.8145C1.86337 11.3165 2.72094 11.3265 2.72094 11.3265C3.60267 11.3835 4.06604 12.1545 4.06604 12.1545C4.85004 13.3815 6.12267 13.0275 6.62337 12.8215C6.70243 12.3025 6.92973 11.9485 7.18118 11.7475C5.23106 11.5445 3.17992 10.8555 3.17992 7.77853C3.17992 6.90153 3.52251 6.18453 4.08471 5.62253C3.99357 5.41953 3.69271 4.60253 4.17035 3.49753C4.17035 3.49753 4.90824 3.28153 6.58604 4.32053C7.28659 4.14253 8.03765 4.05353 8.78541 4.05053C9.53098 4.05453 10.2831 4.14253 10.9848 4.32153C12.6615 3.28253 13.3983 3.49853 13.3983 3.49853C13.877 4.60453 13.5762 5.42053 13.4861 5.62353C14.0494 6.18553 14.3887 6.90253 14.3887 7.77953C14.3887 10.8645 12.3354 11.5435 10.3787 11.7425C10.6938 11.9905 10.9749 12.4805 10.9749 13.2295C10.9749 14.3035 10.9639 15.1695 10.9639 15.4325C10.9639 15.6475 11.122 15.8975 11.5678 15.8185C15.0541 14.7545 17.5686 11.7455 17.5686 8.19853C17.5686 3.76253 13.6355 0.166527 8.78322 0.166527Z" fill="#C4C4CC"/>
</g>
<defs>
<clipPath id="clip0_61385:198">
<rect width="17.5686" height="16" fill="white"/>
</clipPath>
</defs>
</svg>
