<svg width="48" height="48" viewBox="0 0 48 48" fill="none" xmlns="http://www.w3.org/2000/svg">
<rect y="0.128052" width="48" height="47.5271" fill="#323238"/>
<g clip-path="url(#clip0_61385:216)">
<path d="M22.724 35.7733C21.617 35.7733 20.324 35.7673 19.048 35.695C17.1811 35.7366 15.3729 35.0475 14.016 33.7771C12.7328 32.4341 12.0367 30.644 12.079 28.7957C12 27.3669 12 25.9223 12 24.5252C12 24.314 12 24.1027 12 23.8915C12 23.6803 12 23.469 12 23.2578C12 21.8607 12 20.4161 12.079 18.9883C12.037 17.1398 12.733 15.3494 14.016 14.0059C15.3729 12.7356 17.1811 12.0464 19.048 12.088C20.328 12.0157 21.617 12.0098 22.724 12.0098H25.277C26.384 12.0098 27.677 12.0157 28.954 12.088C30.8207 12.0461 32.6286 12.7353 33.985 14.0059C35.268 15.3494 35.964 17.1398 35.922 18.9883C36 20.4161 36 21.8607 36 23.2588C36 23.47 36 23.6813 36 23.8925C36 24.1037 36 24.3146 36 24.5252C36 25.9223 36 27.3669 35.921 28.7967C35.9633 30.645 35.2672 32.4351 33.984 33.7781C32.6276 35.0487 30.8197 35.7379 28.953 35.696C27.672 35.7683 26.383 35.7742 25.276 35.7742L22.724 35.7733Z" fill="white"/>
<path d="M29.6061 18.7315C29.8425 18.8879 30.1206 18.9714 30.405 18.9714L30.406 18.9724C30.7873 18.9719 31.1528 18.8216 31.4222 18.5544C31.6916 18.2873 31.843 17.9252 31.843 17.5476C31.843 17.266 31.7586 16.9907 31.6006 16.7566C31.4426 16.5224 31.218 16.3399 30.9553 16.2322C30.6925 16.1244 30.4034 16.0962 30.1244 16.1511C29.8455 16.2061 29.5893 16.3417 29.3882 16.5408C29.1871 16.7399 29.0501 16.9936 28.9946 17.2698C28.9391 17.546 28.9676 17.8323 29.0764 18.0925C29.1853 18.3527 29.3696 18.575 29.6061 18.7315Z" fill="#323238"/>
<path fill-rule="evenodd" clip-rule="evenodd" d="M24.0003 29.9865C22.7828 29.9863 21.5927 29.6287 20.5805 28.9588C19.5682 28.2889 18.7794 27.3369 18.3136 26.2231C17.8478 25.1093 17.726 23.8837 17.9637 22.7014C18.2013 21.5191 18.7877 20.4331 19.6487 19.5808C20.5097 18.7284 21.6066 18.148 22.8007 17.9129C23.9948 17.6778 25.2325 17.7985 26.3573 18.2599C27.4821 18.7213 28.4435 19.5025 29.1199 20.5049C29.7963 21.5072 30.1573 22.6857 30.1573 23.8912C30.1557 25.5075 29.5065 27.0573 28.3522 28.2002C27.1979 29.3431 25.6327 29.9849 24.0003 29.9865ZM24.0002 19.9311C23.2091 19.9311 22.4357 20.1634 21.7779 20.5986C21.1201 21.0338 20.6075 21.6523 20.3047 22.376C20.002 23.0997 19.9227 23.8961 20.0771 24.6644C20.2314 25.4326 20.6124 26.1383 21.1718 26.6922C21.7312 27.2461 22.4439 27.6234 23.2199 27.7762C23.9958 27.929 24.8001 27.8506 25.531 27.5508C26.2619 27.251 26.8866 26.7434 27.3261 26.0921C27.7656 25.4408 28.0002 24.675 28.0002 23.8917C28.0002 22.8413 27.5788 21.8339 26.8286 21.0911C26.0785 20.3484 25.0611 19.9311 24.0002 19.9311Z" fill="#323238"/>
</g>
<defs>
<clipPath id="clip0_61385:216">
<rect width="24" height="23.7635" fill="white" transform="translate(12 12.0098)"/>
</clipPath>
</defs>
</svg>
