<svg width="48" height="48" viewBox="0 0 48 48" fill="none" xmlns="http://www.w3.org/2000/svg">
<rect y="0.128052" width="48" height="47.5271" fill="#323238"/>
<g clip-path="url(#clip0_61385:205)">
<path d="M36.6849 16.8076C35.7604 17.1943 34.7804 17.4493 33.777 17.5645C34.8352 16.965 35.6271 16.0217 36.0048 14.9106C35.0116 15.472 33.9235 15.8672 32.7883 16.0787C32.0948 15.3742 31.1931 14.8838 30.2008 14.6716C29.2084 14.4594 28.1716 14.5352 27.2254 14.8891C26.2793 15.243 25.4678 15.8585 24.8969 16.6554C24.3259 17.4523 24.022 18.3936 24.0249 19.3564C24.0229 19.7248 24.0668 20.0922 24.1557 20.4509C22.1397 20.3563 20.1674 19.8604 18.3677 18.9955C16.568 18.1306 14.9813 16.9162 13.7112 15.4316C13.0632 16.4885 12.8653 17.7395 13.158 18.9297C13.4506 20.1199 14.2117 21.1597 15.2861 21.8374C14.4786 21.8185 13.6883 21.6128 12.9842 21.2382V21.2977C12.9836 22.406 13.3886 23.4803 14.1302 24.338C14.8718 25.1957 15.9044 25.784 17.0524 26.0028C16.6174 26.1145 16.1688 26.171 15.7181 26.1711C15.3986 26.1717 15.0798 26.1419 14.7665 26.0823C15.0901 27.0355 15.7205 27.869 16.5695 28.4664C17.4184 29.0637 18.4435 29.3949 19.5012 29.4137C17.7066 30.7487 15.489 31.4725 13.2064 31.4684C12.8025 31.4679 12.399 31.4449 11.998 31.3995C14.3046 32.8199 16.9986 33.5733 19.7505 33.5675C21.6488 33.58 23.5308 33.2354 25.2872 32.5536C27.0435 31.8717 28.639 30.8663 29.9811 29.5957C31.3232 28.3252 32.3851 26.8148 33.105 25.1524C33.8248 23.4901 34.1883 21.7089 34.1744 19.9124C34.1744 19.7045 34.1744 19.4965 34.1583 19.2933C35.1498 18.6133 36.0054 17.7716 36.6849 16.8076V16.8076Z" fill="white"/>
</g>
<defs>
<clipPath id="clip0_61385:205">
<rect width="24.6857" height="19.0108" fill="white" transform="translate(12 14.5557)"/>
</clipPath>
</defs>
</svg>
